<?xml version="1.0" encoding="UTF-8"?>
<svg version="1.1" xmlns="http://www.w3.org/2000/svg" width="480" height="480">
<path d="M0 0 C158.4 0 316.8 0 480 0 C480 158.4 480 316.8 480 480 C321.6 480 163.2 480 0 480 C0 321.6 0 163.2 0 0 Z " fill="#000000" transform="translate(0,0)"/>
<path d="M0 0 C5.40552065 4.76248473 8.65943996 10.23578149 11 17 C11.2371875 17.66257813 11.474375 18.32515625 11.71875 19.0078125 C14.66346321 29.19807005 12.96057844 41.3568525 9 51 C5.37 51 1.74 51 -2 51 C-1.835 49.865625 -1.67 48.73125 -1.5 47.5625 C-0.04031186 33.77171503 0.24779082 21.28184847 -7.9375 9.4375 C-10.31733819 6.50616279 -12.19810137 4.80039971 -16 4 C-17.32 4 -18.64 4 -20 4 C-20 4.66 -20 5.32 -20 6 C-17.99601863 7.85636667 -15.87875008 9.53496304 -13.75 11.24609375 C-12 13 -12 13 -12 16 C-12.928125 15.0925 -13.85625 14.185 -14.8125 13.25 C-20.59773857 8.27610586 -28.43289198 5.63059233 -36 5 C-36.71671875 4.93683594 -37.4334375 4.87367188 -38.171875 4.80859375 C-51.49244085 4.18293081 -64.06367688 8.33865447 -76.05883789 13.69775391 C-81.76633856 16.1497249 -86.78502795 16.84566574 -93 16 C-93 15.34 -93 14.68 -93 14 C-94.65 14 -96.3 14 -98 14 C-94.59172506 10.11737752 -90.76632653 7.97420183 -86.25 5.625 C-85.49847656 5.2328833 -84.74695313 4.8407666 -83.97265625 4.43676758 C-76.52735339 0.63539173 -68.97128942 -2.48754256 -61 -5 C-60.33564941 -5.21027832 -59.67129883 -5.42055664 -58.98681641 -5.63720703 C-39.62744199 -11.51906652 -17.14160229 -11.95045459 0 0 Z " fill="#E36A29" transform="translate(310,174)"/>
<path d="M0 0 C3.3 0 6.6 0 10 0 C10.350625 1.155 10.70125 2.31 11.0625 3.5 C13.76031746 10.55679104 18.26693349 15.37551818 24.9375 18.875 C42.35634023 26.64286118 59.72721693 22.39730433 76.99609375 16.33984375 C79.34004017 15.5215558 81.45984442 14.91173456 83.91015625 14.44140625 C86.20950443 14.15430584 86.20950443 14.15430584 88 12 C88 12.99 88 13.98 88 15 C95.73886131 12.24840487 102.41480026 7.32952909 108.41015625 1.76171875 C111.7450242 -0.50679625 113.82266313 -0.41120553 117.8125 -0.25 C119.55466797 -0.19585937 119.55466797 -0.19585937 121.33203125 -0.140625 C122.21246094 -0.09421875 123.09289062 -0.0478125 124 0 C102.63718418 22.05691453 69.83537326 37.09800528 39.1875 38.375 C26.82239765 38.1129581 14.07298795 34.61026911 4.91015625 26.046875 C1.4336512 22.32154035 -0.85869234 19.07247848 -2 14 C-1.34 14 -0.68 14 0 14 C0 14.99 0 15.98 0 17 C2.64 17.33 5.28 17.66 8 18 C7.50628906 17.20335937 7.01257813 16.40671875 6.50390625 15.5859375 C5.54291016 13.99652344 5.54291016 13.99652344 4.5625 12.375 C3.92441406 11.33085937 3.28632813 10.28671875 2.62890625 9.2109375 C1.01746748 6.0344323 0.37514953 3.51900829 0 0 Z " fill="#120604" transform="translate(159,276)"/>
<path d="M0 0 C0.82395264 -0.00570007 1.64790527 -0.01140015 2.49682617 -0.01727295 C4.23826835 -0.02668815 5.97972807 -0.03324304 7.72119141 -0.03710938 C10.33919939 -0.04674326 12.95639698 -0.07776953 15.57421875 -0.109375 C32.47102517 -0.21664771 46.98562505 2.64193069 61.75 11.328125 C67.05949631 14.3445345 72.23457525 15.37517486 78.19140625 16.50390625 C83.71492007 17.7170461 87.15113196 19.36732295 90.375 24.203125 C91.36996902 27.18803205 91.57910684 28.35705429 90.375 31.203125 C88.395 27.738125 88.395 27.738125 86.375 24.203125 C82.34325194 24.47801691 80.80605369 24.73804076 78 27.765625 C77.46375 28.57 76.9275 29.374375 76.375 30.203125 C76.86321094 25.90686869 77.66794512 23.5415841 80.375 20.203125 C72.64644359 18.84469273 64.98781578 18.01386621 57.15625 17.671875 C56.23101532 17.63083145 55.30578064 17.5897879 54.35250854 17.54750061 C39.56106778 16.95049659 24.75254262 16.85087773 9.95147705 16.67089844 C5.81397121 16.61980413 1.67652034 16.56458694 -2.4609375 16.50976562 C-10.51557795 16.40362479 -18.57026571 16.30188772 -26.625 16.203125 C-26.295 15.543125 -25.965 14.883125 -25.625 14.203125 C-23.01822894 13.4891877 -20.45375175 12.88180399 -17.8125 12.328125 C-11.33313251 10.89964605 -5.10435326 9.17510828 1.15234375 6.9375 C3.375 6.203125 3.375 6.203125 5.375 6.203125 C5.375 5.543125 5.375 4.883125 5.375 4.203125 C-10.37940221 3.16530062 -23.0041388 5.25167021 -37.625 11.203125 C-36.635 11.863125 -35.645 12.523125 -34.625 13.203125 C-34.625 13.863125 -34.625 14.523125 -34.625 15.203125 C-40.565 15.203125 -46.505 15.203125 -52.625 15.203125 C-52.625 14.543125 -52.625 13.883125 -52.625 13.203125 C-47.32474617 11.50718107 -42.02279968 9.8166756 -36.71923828 8.13110352 C-34.91668365 7.55738686 -33.11459369 6.9822081 -31.31298828 6.40551758 C-28.71769158 5.5750513 -26.12074851 4.74992289 -23.5234375 3.92578125 C-22.7232016 3.66845718 -21.9229657 3.41113312 -21.09848022 3.14601135 C-13.99153829 0.90108222 -7.43086765 0.04058166 0 0 Z " fill="#F2F2F2" transform="translate(215.625,193.796875)"/>
<path d="M0 0 C1.74216797 0.05414063 1.74216797 0.05414063 3.51953125 0.109375 C4.39996094 0.15578125 5.28039062 0.2021875 6.1875 0.25 C-15.17531582 22.30691453 -47.97712674 37.34800528 -78.625 38.625 C-90.99010235 38.3629581 -103.73951205 34.86026911 -112.90234375 26.296875 C-116.3788488 22.57154035 -118.67119234 19.32247848 -119.8125 14.25 C-119.1525 14.25 -118.4925 14.25 -117.8125 14.25 C-117.3175 15.28125 -116.8225 16.3125 -116.3125 17.375 C-112.64359776 23.75682291 -106.66931522 27.29855255 -99.8671875 29.70703125 C-74.96010982 36.28893961 -49.18175764 27.87010138 -27.68408203 15.39453125 C-21.27470658 11.47499667 -14.86186621 7.06331733 -9.33984375 1.96875 C-6.04752342 -0.27023137 -3.93836427 -0.15912583 0 0 Z " fill="#DC6D32" transform="translate(276.8125,275.75)"/>
<path d="M0 0 C1.30130859 0.12375 1.30130859 0.12375 2.62890625 0.25 C4.42554639 0.44997386 6.21496914 0.71439506 8 1 C8 1.66 8 2.32 8 3 C-2.0909564 6.94407444 -12.37480396 9.87496079 -23 12 C-16.07 12.33 -9.14 12.66 -2 13 C-2 13.33 -2 13.66 -2 14 C-4.31 14.33 -6.62 14.66 -9 15 C-6.22739701 16.93798263 -6.22739701 16.93798263 -4 18 C-4 18.66 -4 19.32 -4 20 C-6.75006608 20.0270203 -9.49986546 20.04684883 -12.25 20.0625 C-13.02730469 20.07087891 -13.80460937 20.07925781 -14.60546875 20.08789062 C-15.73662109 20.09272461 -15.73662109 20.09272461 -16.890625 20.09765625 C-17.92751465 20.10551147 -17.92751465 20.10551147 -18.98535156 20.11352539 C-21.10756829 19.99393853 -22.94219304 19.51789783 -25 19 C-26.58567839 18.8578299 -28.17518632 18.75495959 -29.765625 18.68359375 C-31.09980469 18.62075195 -31.09980469 18.62075195 -32.4609375 18.55664062 C-33.38132813 18.51732422 -34.30171875 18.47800781 -35.25 18.4375 C-36.65378906 18.37272461 -36.65378906 18.37272461 -38.0859375 18.30664062 C-40.39048641 18.2008195 -42.69513839 18.09873443 -45 18 C-45 19.32 -45 20.64 -45 22 C-31.635 22.495 -31.635 22.495 -18 23 C-18 23.33 -18 23.66 -18 24 C-18.95890137 24.05534912 -19.91780273 24.11069824 -20.90576172 24.16772461 C-24.4581134 24.37392741 -28.01010329 24.58586911 -31.56201172 24.79956055 C-33.10033028 24.8913011 -34.63874291 24.98147798 -36.17724609 25.07006836 C-38.38665855 25.19756186 -40.59567338 25.33064631 -42.8046875 25.46484375 C-43.83914505 25.52272316 -43.83914505 25.52272316 -44.89450073 25.58177185 C-48.57031918 25.77807583 -48.57031918 25.77807583 -52 27 C-51.67 26.01 -51.34 25.02 -51 24 C-52.65 23.67 -54.3 23.34 -56 23 C-56.33 24.65 -56.66 26.3 -57 28 C-59.02907167 24.6853333 -59.12742133 22.5684021 -58.625 18.75 C-58.45871094 17.41195312 -58.45871094 17.41195312 -58.2890625 16.046875 C-58.14597656 15.03367188 -58.14597656 15.03367188 -58 14 C-56.02 13.34 -54.04 12.68 -52 12 C-52 11.34 -52 10.68 -52 10 C-51.34 10 -50.68 10 -50 10 C-50 10.66 -50 11.32 -50 12 C-44.06 12 -38.12 12 -32 12 C-32 11.34 -32 10.68 -32 10 C-34.475 9.505 -34.475 9.505 -37 9 C-28.70645323 0.70645323 -11.07758522 -1.18953935 0 0 Z " fill="#050404" transform="translate(213,197)"/>
<path d="M0 0 C0.495 0.99 0.495 0.99 1 2 C-1.31 1.67 -3.62 1.34 -6 1 C-6 1.66 -6 2.32 -6 3 C-3.99601863 4.85636667 -1.87875008 6.53496304 0.25 8.24609375 C2 10 2 10 2 13 C1.071875 12.0925 0.14375 11.185 -0.8125 10.25 C-6.59773857 5.27610586 -14.43289198 2.63059233 -22 2 C-22.71671875 1.93683594 -23.4334375 1.87367188 -24.171875 1.80859375 C-37.49244085 1.18293081 -50.06367688 5.33865447 -62.05883789 10.69775391 C-67.76633856 13.1497249 -72.78502795 13.84566574 -79 13 C-79 12.34 -79 11.68 -79 11 C-80.65 11 -82.3 11 -84 11 C-80.90886602 7.43330695 -78.42662909 6.4360996 -74 5 C-72.0522884 4.08390392 -70.11518215 3.14502495 -68.1875 2.1875 C-47.10128773 -7.70120644 -21.0493885 -12.31190648 0 0 Z " fill="#0F0202" transform="translate(296,177)"/>
<path d="M0 0 C1.69576172 -0.03867188 1.69576172 -0.03867188 3.42578125 -0.078125 C7.00020151 0.2814574 8.83560326 1.10977877 11.6875 3.25 C13.54218273 6.95936546 13.2747961 11.21070795 12.6875 15.25 C10.06462069 18.2371681 7.6333367 19.79904723 3.6875 20.25 C-1.91018243 20.6111408 -5.5094205 20.48928618 -10.3125 17.25 C-12.94754257 14.18995056 -13.32132651 12.75311118 -13.25 8.6875 C-12.23686688 4.97267858 -11.295947 3.60059461 -8.3125 1.25 C-5.51142988 -0.15053506 -3.12358319 0.0424496 0 0 Z " fill="#EEEEEE" transform="translate(197.3125,230.75)"/>
<path d="M0 0 C3.3 0 6.6 0 10 0 C10.350625 1.155 10.70125 2.31 11.0625 3.5 C13.76031746 10.55679104 18.26693349 15.37551818 24.9375 18.875 C39.8472297 25.52393352 55.77398127 23.74333325 70.94140625 18.48828125 C73 18 73 18 76 19 C57.08735659 26.71757868 38.67506264 31.36665076 18.875 24.3125 C9.67652178 20.3476387 5.29081593 14.59883765 1.03125 5.671875 C0 3 0 3 0 0 Z " fill="#F5F5F5" transform="translate(159,276)"/>
<path d="M0 0 C0.33 0.99 0.66 1.98 1 3 C1.66 3 2.32 3 3 3 C5.37667168 9.53584711 5.29784026 15.78654297 5.25 22.6875 C5.25773437 23.81478516 5.26546875 24.94207031 5.2734375 26.10351562 C5.27085937 27.18697266 5.26828125 28.27042969 5.265625 29.38671875 C5.26336914 30.36858154 5.26111328 31.35044434 5.25878906 32.36206055 C5 35 5 35 3 39 C-0.63 39 -4.26 39 -8 39 C-7.125 30.125 -7.125 30.125 -6 29 C-5.46911129 19.37253743 -5.18528049 10.03725217 -9 1 C-5 1 -5 1 -3.25 2.5 C-2.8375 2.995 -2.425 3.49 -2 4 C-1.34 2.68 -0.68 1.36 0 0 Z " fill="#F16A21" transform="translate(316,186)"/>
<path d="M0 0 C3.5 0.125 3.5 0.125 4.5 1.125 C6.39775016 1.17614719 8.29736171 1.16025145 10.1953125 1.1171875 C40.5233479 0.63667395 40.5233479 0.63667395 49.5 5.125 C49.5 5.785 49.5 6.445 49.5 7.125 C46.74993392 7.1520203 44.00013454 7.17184883 41.25 7.1875 C40.47269531 7.19587891 39.69539063 7.20425781 38.89453125 7.21289062 C37.76337891 7.21772461 37.76337891 7.21772461 36.609375 7.22265625 C35.57248535 7.23051147 35.57248535 7.23051147 34.51464844 7.23852539 C32.39243171 7.11893853 30.55780696 6.64289783 28.5 6.125 C26.91432161 5.9828299 25.32481368 5.87995959 23.734375 5.80859375 C22.84492188 5.76669922 21.95546875 5.72480469 21.0390625 5.68164062 C20.11867187 5.64232422 19.19828125 5.60300781 18.25 5.5625 C17.31414062 5.51931641 16.37828125 5.47613281 15.4140625 5.43164062 C13.10951359 5.3258195 10.80486161 5.22373443 8.5 5.125 C8.5 6.445 8.5 7.765 8.5 9.125 C21.865 9.62 21.865 9.62 35.5 10.125 C35.5 10.455 35.5 10.785 35.5 11.125 C34.54109863 11.18034912 33.58219727 11.23569824 32.59423828 11.29272461 C29.0418866 11.49892741 25.48989671 11.71086911 21.93798828 11.92456055 C20.39966972 12.0163011 18.86125709 12.10647798 17.32275391 12.19506836 C15.11334145 12.32256186 12.90432662 12.45564631 10.6953125 12.58984375 C9.66085495 12.64772316 9.66085495 12.64772316 8.60549927 12.70677185 C4.92968082 12.90307583 4.92968082 12.90307583 1.5 14.125 C1.83 13.135 2.16 12.145 2.5 11.125 C0.85 10.795 -0.8 10.465 -2.5 10.125 C-2.83 11.775 -3.16 13.425 -3.5 15.125 C-5.49801607 11.84090462 -5.65166527 9.72352272 -5.1875 5.9375 C-5.08824219 5.05707031 -4.98898438 4.17664063 -4.88671875 3.26953125 C-4.24146936 -0.30866989 -3.85316866 0.13761317 0 0 Z " fill="#150101" transform="translate(159.5,209.875)"/>
<path d="M0 0 C1.78674145 1.59546013 3.38054374 3.22871971 5 5 C4.67 5.66 4.34 6.32 4 7 C3.071875 6.0925 2.14375 5.185 1.1875 4.25 C-4.59773857 -0.72389414 -12.43289198 -3.36940767 -20 -4 C-20.71671875 -4.06316406 -21.4334375 -4.12632812 -22.171875 -4.19140625 C-35.49244085 -4.81706919 -48.06367688 -0.66134553 -60.05883789 4.69775391 C-65.76633856 7.1497249 -70.78502795 7.84566574 -77 7 C-58.38768884 -9.05225349 -20.26452939 -15.41182612 0 0 Z " fill="#F6F6F6" transform="translate(294,183)"/>
<path d="M0 0 C0.66 0 1.32 0 2 0 C2.495 1.03125 2.99 2.0625 3.5 3.125 C7.16890224 9.50682291 13.14318478 13.04855255 19.9453125 15.45703125 C37.02445061 19.97033961 56.71899208 17.10537797 73 11 C73 11.66 73 12.32 73 13 C71.92878906 13.34933594 70.85757813 13.69867188 69.75390625 14.05859375 C68.35671896 14.51807145 66.95958635 14.97771546 65.5625 15.4375 C64.85544922 15.66759766 64.14839844 15.89769531 63.41992188 16.13476562 C59.93693205 17.07421147 59.93693205 17.07421147 57 19 C54.47403741 19.23653523 51.96892793 19.42173692 49.4375 19.5625 C48.37112305 19.62727539 48.37112305 19.62727539 47.28320312 19.69335938 C45.52238088 19.79971777 43.7612168 19.90038846 42 20 C48.93 20.495 48.93 20.495 56 21 C53.26144764 23.73855236 50.70107727 23.72030523 47 24 C46.15308594 24.06574219 45.30617187 24.13148438 44.43359375 24.19921875 C32.09375095 24.6860969 18.77853345 21.85164012 9 14 C4.57378623 9.86335162 1.35963466 6.04282069 0 0 Z " fill="#E26B2B" transform="translate(157,290)"/>
<path d="M0 0 C1.010625 -0.00773438 2.02125 -0.01546875 3.0625 -0.0234375 C6.42194088 0.43223134 8.31177017 1.33002516 11 3.375 C11.33 4.365 11.66 5.355 12 6.375 C7.25 5.5 7.25 5.5 5 4.375 C2.7927077 4.30407158 0.58332548 4.29084975 -1.625 4.3125 C-3.40777344 4.32603516 -3.40777344 4.32603516 -5.2265625 4.33984375 C-6.59941406 4.35724609 -6.59941406 4.35724609 -8 4.375 C-8 5.365 -8 6.355 -8 7.375 C-6.79601562 7.49617187 -5.59203125 7.61734375 -4.3515625 7.7421875 C-2.77599234 7.91099859 -1.20047408 8.08029459 0.375 8.25 C1.1690625 8.32863281 1.963125 8.40726563 2.78125 8.48828125 C8.7734375 9.1484375 8.7734375 9.1484375 11 11.375 C11.125 14.5 11.125 14.5 11 17.375 C5.63887624 20.05556188 2.00573274 20.94697455 -4 20.375 C-7.46892258 19.09021386 -9.39531636 18.3369967 -11.375 15.1875 C-11.58125 14.589375 -11.7875 13.99125 -12 13.375 C-10.68 13.375 -9.36 13.375 -8 13.375 C-8 14.035 -8 14.695 -8 15.375 C-3.05 15.375 1.9 15.375 7 15.375 C7 14.715 7 14.055 7 13.375 C5.87980469 13.19324219 4.75960937 13.01148438 3.60546875 12.82421875 C2.13270431 12.57094079 0.66005378 12.31699984 -0.8125 12.0625 C-1.55048828 11.94455078 -2.28847656 11.82660156 -3.04882812 11.70507812 C-6.07440409 11.17115295 -8.50881957 10.73647065 -11.01171875 8.89453125 C-12 7.375 -12 7.375 -12 5.375 C-9.60176295 0.5785259 -4.92425024 -0.03768559 0 0 Z " fill="#F2F2F2" transform="translate(230,230.625)"/>
<path d="M0 0 C4.40433783 1.76550489 5.55990944 5.53597089 7.55078125 9.66015625 C8.16083008 10.86961914 8.16083008 10.86961914 8.78320312 12.10351562 C9.78442229 14.09417491 10.76838542 16.09159842 11.73828125 18.09765625 C10.41828125 18.42765625 9.09828125 18.75765625 7.73828125 19.09765625 C7.40828125 18.43765625 7.07828125 17.77765625 6.73828125 17.09765625 C2.11828125 17.09765625 -2.50171875 17.09765625 -7.26171875 17.09765625 C-7.59171875 17.75765625 -7.92171875 18.41765625 -8.26171875 19.09765625 C-9.58171875 18.76765625 -10.90171875 18.43765625 -12.26171875 18.09765625 C-10.78552239 15.28358744 -9.30526632 12.47167447 -7.82421875 9.66015625 C-7.40333984 8.85771484 -6.98246094 8.05527344 -6.54882812 7.22851562 C-6.14599609 6.46474609 -5.74316406 5.70097656 -5.328125 4.9140625 C-4.95631104 4.20709229 -4.58449707 3.50012207 -4.20141602 2.77172852 C-2.71129074 0.11706782 -2.71129074 0.11706782 0 0 Z " fill="#F8F8F8" transform="translate(315.26171875,230.90234375)"/>
<path d="M0 0 C1.32 0 2.64 0 4 0 C5.5066972 2.7881022 7.00419804 5.58103958 8.5 8.375 C8.92925781 9.1690625 9.35851562 9.963125 9.80078125 10.78125 C10.40986328 11.92207031 10.40986328 11.92207031 11.03125 13.0859375 C11.40830078 13.7876709 11.78535156 14.4894043 12.17382812 15.21240234 C13 17 13 17 13 19 C11.68 18.67 10.36 18.34 9 18 C9 17.34 9 16.68 9 16 C4.05 16 -0.9 16 -6 16 C-6.33 16.99 -6.66 17.98 -7 19 C-7.99 19 -8.98 19 -10 19 C-8.65610276 14.49558061 -6.84328221 10.7205754 -4.4375 6.6875 C-3.50744141 5.11548828 -3.50744141 5.11548828 -2.55859375 3.51171875 C-1 1 -1 1 0 0 Z " fill="#F6F6F6" transform="translate(258,231)"/>
<path d="M0 0 C1.78515625 1.10546875 1.78515625 1.10546875 2.78515625 3.10546875 C3.23786613 8.42480988 3.23786613 8.42480988 1.67578125 10.7734375 C-1.10439747 12.73219978 -3.35218429 12.50318942 -6.71484375 12.48046875 C-8.431875 12.49207031 -8.431875 12.49207031 -10.18359375 12.50390625 C-13.21484375 12.10546875 -13.21484375 12.10546875 -15.08984375 10.80078125 C-17.03448415 7.8703162 -16.6980104 5.48763533 -16.21484375 2.10546875 C-12.09406998 -2.01530502 -5.23754915 -2.11534172 0 0 Z " fill="#030303" transform="translate(204.21484375,234.89453125)"/>
<path d="M0 0 C0 0.33 0 0.66 0 1 C-1.98 1 -3.96 1 -6 1 C-6 1.66 -6 2.32 -6 3 C-1.545 2.505 -1.545 2.505 3 2 C4.0055761 3.45449401 5.00430435 4.91372443 6 6.375 C6.556875 7.18710938 7.11375 7.99921875 7.6875 8.8359375 C9 11 9 11 9 13 C-11.42231293 13.28408163 -11.42231293 13.28408163 -14.7421875 10.58203125 C-16 9 -16 9 -16 7 C-10.375 4 -10.375 4 -7 4 C-7 3.34 -7 2.68 -7 2 C-8.65 2 -10.3 2 -12 2 C-8.09971775 -0.60018816 -4.52565431 -0.15085514 0 0 Z " fill="#0B0B0B" transform="translate(244,195)"/>
<path d="M0 0 C0 0.33 0 0.66 0 1 C-6.6 1 -13.2 1 -20 1 C-20 1.66 -20 2.32 -20 3 C-13.07 3 -6.14 3 1 3 C1 3.99 1 4.98 1 6 C3.4390706 8.20142332 3.4390706 8.20142332 6 10 C3.45515245 9.5294088 0.9972205 8.99915521 -1.48046875 8.24609375 C-22.76885135 1.88722622 -43.5157307 7.94895499 -63 17 C-63.99 17.66 -64.98 18.32 -66 19 C-66.99 18.67 -67.98 18.34 -69 18 C-46.63464859 5.33915452 -25.81314157 -0.90838035 0 0 Z " fill="#DA6C32" transform="translate(287,165)"/>
<path d="M0 0 C1.38150378 0.01006974 2.76301484 0.0191884 4.14453125 0.02734375 C7.47154732 0.0506096 10.79817285 0.08329436 14.125 0.125 C14.62 2.6 14.62 2.6 15.125 5.125 C0.275 5.455 -14.575 5.785 -29.875 6.125 C-29.875 4.805 -29.875 3.485 -29.875 2.125 C-19.8136058 0.38500065 -10.21312807 -0.13029506 0 0 Z " fill="#582A1B" transform="translate(277.875,215.875)"/>
<path d="M0 0 C1.32 0 2.64 0 4 0 C4 2.64 4 5.28 4 8 C9.04629793 6.73842552 12.19903711 4.46387782 16.0703125 1.14453125 C18 0 18 0 22 1 C19.03 3.64 16.06 6.28 13 9 C13.94875 10.093125 14.8975 11.18625 15.875 12.3125 C17.76954348 14.49534358 19.3889658 16.5834487 21 19 C16.15409462 18.55946315 12.51858133 16.25494123 9 13 C9 12.34 9 11.68 9 11 C7.35 11 5.7 11 4 11 C4 13.64 4 16.28 4 19 C2.68 19 1.36 19 0 19 C0 12.73 0 6.46 0 0 Z " fill="#EDEDED" transform="translate(156,231)"/>
<path d="M0 0 C0.495 1.485 0.495 1.485 1 3 C0.12859375 3.17015625 -0.7428125 3.3403125 -1.640625 3.515625 C-12.16599483 5.65715046 -21.81805429 8.21734404 -31.3125 13.3125 C-37.30502726 16.45444268 -37.30502726 16.45444268 -41.25 15.875 C-42.1575 15.58625 -43.065 15.2975 -44 15 C-40.90649241 11.43056816 -38.43185408 10.43461943 -34 9 C-31.88392665 8.04683773 -29.77990772 7.06654913 -27.6875 6.0625 C-17.90376197 1.53586103 -10.8883915 -0.49743921 0 0 Z " fill="#0E0606" transform="translate(256,173)"/>
<path d="M0 0 C10.47545254 0.79060019 19.77449487 4.39928601 28 11 C28 11.33 28 11.66 28 12 C24.51667261 12.0434812 21.03825455 12.05848345 17.5546875 12.0234375 C15.05674727 12.00696756 12.55766714 12.06868252 10.0625 12.1875 C4.74325736 10.12493653 2.62805092 4.84871401 0 0 Z " fill="#070707" transform="translate(250,197)"/>
<path d="M0 0 C1.04921631 0.2477417 1.04921631 0.2477417 2.11962891 0.50048828 C5.1916347 1.03323314 7.97027541 1.06428941 11.0859375 0.9921875 C12.84381592 0.96402954 12.84381592 0.96402954 14.63720703 0.93530273 C16.48741455 0.90545288 16.48741455 0.90545288 18.375 0.875 C41.32869612 0.66434806 41.32869612 0.66434806 50 5 C50 5.66 50 6.32 50 7 C47.9377952 7.054348 45.87517184 7.09294961 43.8125 7.125 C42.66394531 7.14820313 41.51539063 7.17140625 40.33203125 7.1953125 C37 7 37 7 34.7734375 6.01367188 C31.27215744 4.73397867 27.97437784 4.64703376 24.29296875 4.5859375 C23.56757401 4.56657135 22.84217926 4.5472052 22.09480286 4.5272522 C19.79248578 4.46777892 17.49011781 4.42120155 15.1875 4.375 C13.62042168 4.33679042 12.05336369 4.29773697 10.48632812 4.2578125 C6.65771848 4.16210437 2.82901058 4.07795552 -1 4 C-0.67 2.68 -0.34 1.36 0 0 Z " fill="#D06D38" transform="translate(159,210)"/>
<path d="M0 0 C1.31291016 -0.02513672 1.31291016 -0.02513672 2.65234375 -0.05078125 C5.50179951 0.37871532 6.36781659 1.02194404 8.0625 3.3125 C8.5 5.8125 8.5 5.8125 8.0625 8.3125 C6.27327735 10.47447737 4.90451178 11.20407192 2.12109375 11.5625 C-1.74332909 11.67636881 -3.67732565 11.48594957 -6.9375 9.3125 C-7.25 5.8125 -7.25 5.8125 -6.9375 2.3125 C-4.42737037 -0.19762963 -3.46944763 0.01528391 0 0 Z " fill="#070707" transform="translate(212.9375,258.6875)"/>
<path d="M0 0 C4.29 0 8.58 0 13 0 C14 4 14 4 13 6 C12.9603287 7.66619446 12.95615553 9.33391013 13 11 C12.34 11 11.68 11 11 11 C11 9.68 11 8.36 11 7 C8.36 7 5.72 7 3 7 C3 8.32 3 9.64 3 11 C2.01 11 1.02 11 0 11 C0 7.37 0 3.74 0 0 Z " fill="#D9D9D9" transform="translate(163,259)"/>
<path d="M0 0 C3.49983803 -0.08803772 6.99938638 -0.14073608 10.5 -0.1875 C11.97339844 -0.22520508 11.97339844 -0.22520508 13.4765625 -0.26367188 C19.73173059 -0.32622356 24.29212987 0.41107319 30 3 C30 3.66 30 4.32 30 5 C30.66 5.33 31.32 5.66 32 6 C31.34 6 30.68 6 30 6 C30 6.99 30 7.98 30 9 C25.2482602 8.56802365 23.07999946 7.67230705 20 4 C20.33 3.34 20.66 2.68 21 2 C20.10861328 2.12568359 20.10861328 2.12568359 19.19921875 2.25390625 C12.63976245 3.05981146 6.54947111 2.80934529 0 2 C0 1.34 0 0.68 0 0 Z " fill="#F26A20" transform="translate(267,166)"/>
<path d="M0 0 C0.99 0 1.98 0 3 0 C3 5.28 3 10.56 3 16 C8.28 16 13.56 16 19 16 C19 16.99 19 17.98 19 19 C12.73 19 6.46 19 0 19 C0 12.73 0 6.46 0 0 Z " fill="#FEFEFE" transform="translate(279,231)"/>
<path d="M0 0 C1.98 0 3.96 0 6 0 C5.67 1.32 5.34 2.64 5 4 C3.35 4 1.7 4 0 4 C0 4.66 0 5.32 0 6 C-11.25555399 9.7186491 -21.20854731 10.48624547 -33 10 C-30.12437608 7.12437608 -27.88658342 7.6940927 -23.875 7.5625 C-17.96570626 7.28763286 -13.41429774 6.37469199 -8 4 C-5.34782438 3.24617539 -2.68693891 2.62375367 0 2 C0 1.34 0 0.68 0 0 Z " fill="#F26920" transform="translate(230,301)"/>
<path d="M0 0 C3.96 0 7.92 0 12 0 C12.78947104 3.9473552 13.09202608 7.04287849 13 11 C12.34 11 11.68 11 11 11 C11 9.68 11 8.36 11 7 C8.03 7 5.06 7 2 7 C2 8.32 2 9.64 2 11 C1.34 11 0.68 11 0 11 C0 7.37 0 3.74 0 0 Z " fill="#9D9D9C" transform="translate(339,259)"/>
<path d="M0 0 C0.33 0.66 0.66 1.32 1 2 C13.54 2.66 26.08 3.32 39 4 C39 4.33 39 4.66 39 5 C38.04109863 5.05534912 37.08219727 5.11069824 36.09423828 5.16772461 C32.5418866 5.37392741 28.98989671 5.58586911 25.43798828 5.79956055 C23.89966972 5.8913011 22.36125709 5.98147798 20.82275391 6.07006836 C18.61334145 6.19756186 16.40432662 6.33064631 14.1953125 6.46484375 C13.16085495 6.52272316 13.16085495 6.52272316 12.10549927 6.58177185 C8.42968082 6.77807583 8.42968082 6.77807583 5 8 C5.33 7.01 5.66 6.02 6 5 C4.35 4.67 2.7 4.34 1 4 C0.67 5.65 0.34 7.3 0 9 C-1.3950848 6.70221327 -2.07438619 5.5207033 -1.6875 2.8125 C-1 1 -1 1 0 0 Z " fill="#E7E7E9" transform="translate(156,216)"/>
<path d="M0 0 C3.63 0 7.26 0 11 0 C11.33 0.99 11.66 1.98 12 3 C11.36191406 2.91621094 10.72382813 2.83242188 10.06640625 2.74609375 C9.24011719 2.64425781 8.41382813 2.54242188 7.5625 2.4375 C6.73878906 2.33308594 5.91507813 2.22867187 5.06640625 2.12109375 C4.04353516 2.06115234 4.04353516 2.06115234 3 2 C2.67 2.33 2.34 2.66 2 3 C6.455 3.99 6.455 3.99 11 5 C11.33 6.65 11.66 8.3 12 10 C9.59454362 11.20272819 8.05003047 11.10071472 5.375 11.0625 C4.14910156 11.04896484 4.14910156 11.04896484 2.8984375 11.03515625 C1.95871094 11.01775391 1.95871094 11.01775391 1 11 C0.34 9.68 -0.32 8.36 -1 7 C2.63 7.66 6.26 8.32 10 9 C10 8.34 10 7.68 10 7 C9.37351563 6.93941406 8.74703125 6.87882812 8.1015625 6.81640625 C7.28429687 6.73261719 6.46703125 6.64882813 5.625 6.5625 C4.40683594 6.44068359 4.40683594 6.44068359 3.1640625 6.31640625 C1 6 1 6 -1 5 C-0.67 3.35 -0.34 1.7 0 0 Z " fill="#EBEBEA" transform="translate(129,259)"/>
<path d="M0 0 C5.86448454 0.2555331 9.65757571 0.65757571 14 5 C13.67 6.32 13.34 7.64 13 9 C13.66 9 14.32 9 15 9 C15.33 9.99 15.66 10.98 16 12 C10.46937731 10.61734433 6.12334715 7.88188988 2 4 C0.765625 1.8046875 0.765625 1.8046875 0 0 Z " fill="#110303" transform="translate(160,293)"/>
<path d="M0 0 C9.61181435 -0.56540084 9.61181435 -0.56540084 14 3 C15.26237731 5.52475462 15.09856404 7.31200466 15.0625 10.125 C15.05347656 11.03507813 15.04445312 11.94515625 15.03515625 12.8828125 C15.02355469 13.58148438 15.01195312 14.28015625 15 15 C13.68 14.34 12.36 13.68 11 13 C11 10.36 11 7.72 11 5 C5.06 4.01 5.06 4.01 -1 3 C-0.67 2.01 -0.34 1.02 0 0 Z " fill="#F4F4F4" transform="translate(195,231)"/>
<path d="M0 0 C0.495 0.99 0.495 0.99 1 2 C3.02463255 2.65213292 3.02463255 2.65213292 5 3 C3.97003906 3.20753906 2.94007813 3.41507813 1.87890625 3.62890625 C-9.76545477 6.10226449 -21.98646126 9.3243075 -32 16 C-32.99 15.67 -33.98 15.34 -35 15 C-23.9793682 8.76130901 -12.4712112 2.74682373 0 0 Z " fill="#C57147" transform="translate(253,168)"/>
<path d="M0 0 C3.96 0 7.92 0 12 0 C12 0.33 12 0.66 12 1 C9.03 1 6.06 1 3 1 C3 1.99 3 2.98 3 4 C5.64 4 8.28 4 11 4 C11 4.66 11 5.32 11 6 C8.36 6 5.72 6 3 6 C3 6.99 3 7.98 3 9 C5.97 9 8.94 9 12 9 C12 9.66 12 10.32 12 11 C8.04 11 4.08 11 0 11 C0 7.37 0 3.74 0 0 Z " fill="#F5F5F5" transform="translate(146,259)"/>
<path d="M0 0 C0 0.99 0 1.98 0 3 C-1.32 3 -2.64 3 -4 3 C-4 3.99 -4 4.98 -4 6 C-5.85625 6.680625 -5.85625 6.680625 -7.75 7.375 C-10.02490403 8.22156922 -12.15082415 9.07745024 -14.3125 10.1875 C-16 11 -16 11 -19 11 C-17.91463814 7.85245061 -17.14559062 7.07596032 -14.125 5.5 C-13.09375 5.005 -12.0625 4.51 -11 4 C-10.29875 3.29875 -9.5975 2.5975 -8.875 1.875 C-5.8372373 -1.1627627 -4.01953458 -1.33984486 0 0 Z " fill="#EC6B23" transform="translate(256,291)"/>
<path d="M0 0 C5.28 0.66 10.56 1.32 16 2 C16 3.32 16 4.64 16 6 C13.87506859 6.02693575 11.75004088 6.04636628 9.625 6.0625 C8.44164062 6.07410156 7.25828125 6.08570313 6.0390625 6.09765625 C3 6 3 6 1 5 C0.67 3.35 0.34 1.7 0 0 Z " fill="#060606" transform="translate(221,241)"/>
<path d="M0 0 C0.66 0 1.32 0 2 0 C2.495 1.03125 2.99 2.0625 3.5 3.125 C7.5106138 10.10120851 14.41208241 13.90785811 22 16 C23.98956785 16.39080797 25.98806977 16.74850872 28 17 C28 17.33 28 17.66 28 18 C21.25 18.125 21.25 18.125 19 17 C19 17.66 19 18.32 19 19 C11.40006266 17.2900141 6.11677435 12.0900754 2 5.6875 C0 2.33881579 0 2.33881579 0 0 Z " fill="#BE693D" transform="translate(157,290)"/>
<path d="M0 0 C0.33 0.99 0.66 1.98 1 3 C1.66 3.33 2.32 3.66 3 4 C0.96849724 5.20865372 -1.07218325 6.39105566 -3.125 7.5625 C-4.26195312 8.22378906 -5.39890625 8.88507813 -6.5703125 9.56640625 C-10.35016103 11.14636571 -12.11365454 11.08085292 -16 10 C-16 9.34 -16 8.68 -16 8 C-14.35 7.67 -12.7 7.34 -11 7 C-11 6.34 -11 5.68 -11 5 C-10.37351563 4.80664062 -9.74703125 4.61328125 -9.1015625 4.4140625 C-8.28429687 4.15367187 -7.46703125 3.89328125 -6.625 3.625 C-5.40683594 3.24214844 -5.40683594 3.24214844 -4.1640625 2.8515625 C-1.83540815 2.10145717 -1.83540815 2.10145717 0 0 Z " fill="#0E0303" transform="translate(246,288)"/>
<path d="M0 0 C2 2 2 2 2 6 C1.01 6 0.02 6 -1 6 C-1.144375 6.639375 -1.28875 7.27875 -1.4375 7.9375 C-2 10 -2 10 -3 11 C-4.66617115 11.04063832 -6.33388095 11.042721 -8 11 C-8.75 9.3125 -8.75 9.3125 -9 7 C-6.57949251 3.08994944 -4.38249366 1.33909529 0 0 Z " fill="#ED6B25" transform="translate(266,281)"/>
<path d="M0 0 C3.96 0 7.92 0 12 0 C12 0.33 12 0.66 12 1 C8.7 1 5.4 1 2 1 C2 1.99 2 2.98 2 4 C4.97 4 7.94 4 11 4 C11 4.66 11 5.32 11 6 C8.03 6 5.06 6 2 6 C2 6.99 2 7.98 2 9 C5.3 9 8.6 9 12 9 C12 9.66 12 10.32 12 11 C8.04 11 4.08 11 0 11 C0 7.37 0 3.74 0 0 Z " fill="#ECECEC" transform="translate(272,259)"/>
<path d="M0 0 C3.96 0 7.92 0 12 0 C12 0.33 12 0.66 12 1 C8.7 1 5.4 1 2 1 C2 1.99 2 2.98 2 4 C4.97 4 7.94 4 11 4 C11 4.66 11 5.32 11 6 C8.03 6 5.06 6 2 6 C2 6.99 2 7.98 2 9 C5.3 9 8.6 9 12 9 C12 9.66 12 10.32 12 11 C8.04 11 4.08 11 0 11 C0 7.37 0 3.74 0 0 Z " fill="#EEEEEE" transform="translate(322,259)"/>
<path d="M0 0 C3.96 0 7.92 0 12 0 C12 0.33 12 0.66 12 1 C8.7 1 5.4 1 2 1 C2 1.99 2 2.98 2 4 C4.97 4 7.94 4 11 4 C11 4.66 11 5.32 11 6 C8.03 6 5.06 6 2 6 C2 6.99 2 7.98 2 9 C5.3 9 8.6 9 12 9 C12 9.66 12 10.32 12 11 C8.04 11 4.08 11 0 11 C0 7.37 0 3.74 0 0 Z " fill="#EEEEEE" transform="translate(226,259)"/>
<path d="M0 0 C4.97925758 1.27376357 7.82526467 2.91819743 11 7 C11.8125 10.8125 11.8125 10.8125 12 14 C10.25728062 11.702779 8.60088848 9.40133271 7 7 C2.96825194 7.27489191 1.43105369 7.53491576 -1.375 10.5625 C-1.91125 11.366875 -2.4475 12.17125 -3 13 C-2.5205537 8.78087253 -1.83374881 6.20336822 1 3 C0.34 3 -0.32 3 -1 3 C-0.67 2.01 -0.34 1.02 0 0 Z " fill="#EEEFEE" transform="translate(295,211)"/>
<path d="M0 0 C1.5778125 0.07831055 1.5778125 0.07831055 3.1875 0.15820312 C5.7504155 0.2863489 8.31278064 0.42122234 10.875 0.5625 C10.875 0.8925 10.875 1.2225 10.875 1.5625 C9.2971875 1.7790625 9.2971875 1.7790625 7.6875 2 C4.0732276 2.46940924 4.0732276 2.46940924 1.375 3.1875 C-1.125 3.5625 -1.125 3.5625 -4.35571289 3.09204102 C-7.94729381 2.58746565 -11.31112449 2.44815034 -14.93359375 2.46484375 C-16.79467773 2.46967773 -16.79467773 2.46967773 -18.69335938 2.47460938 C-19.97017578 2.48298828 -21.24699219 2.49136719 -22.5625 2.5 C-23.86638672 2.50451172 -25.17027344 2.50902344 -26.51367188 2.51367188 C-29.71749552 2.52540749 -32.92122363 2.54182637 -36.125 2.5625 C-36.455 1.9025 -36.785 1.2425 -37.125 0.5625 C-35.67480469 0.57990234 -35.67480469 0.57990234 -34.1953125 0.59765625 C-32.24238281 0.61119141 -32.24238281 0.61119141 -30.25 0.625 C-28.33574219 0.64240234 -28.33574219 0.64240234 -26.3828125 0.66015625 C-23.34116807 0.64046112 -20.39479493 0.38913594 -17.375 0.03125 C-11.54731611 -0.59845276 -5.84142184 -0.3232848 0 0 Z " fill="#220504" transform="translate(200.125,209.4375)"/>
<path d="M0 0 C0.90492188 0.02320313 1.80984375 0.04640625 2.7421875 0.0703125 C4.10730469 0.09738281 4.10730469 0.09738281 5.5 0.125 C6.19867188 0.14820313 6.89734375 0.17140625 7.6171875 0.1953125 C8.2771875 1.5153125 8.9371875 2.8353125 9.6171875 4.1953125 C8.9159375 3.8446875 8.2146875 3.4940625 7.4921875 3.1328125 C4.11450164 2.0313932 2.03638157 2.40015109 -1.3828125 3.1953125 C-1.7128125 4.1853125 -2.0428125 5.1753125 -2.3828125 6.1953125 C-2.0528125 6.8553125 -1.7228125 7.5153125 -1.3828125 8.1953125 C0.504375 8.22625 0.504375 8.22625 2.4296875 8.2578125 C3.13738281 8.26941406 3.84507812 8.28101563 4.57421875 8.29296875 C6.82024211 8.27794467 6.82024211 8.27794467 9.6171875 7.1953125 C8.6171875 10.1953125 8.6171875 10.1953125 6.6171875 11.1953125 C-0.51000782 11.77008632 -0.51000782 11.77008632 -3.9453125 9.5078125 C-5.3828125 7.1953125 -5.3828125 7.1953125 -5.2578125 4.5703125 C-4.11413478 1.46604439 -3.38506252 0.27746414 0 0 Z " fill="#E5E5E5" transform="translate(256.3828125,258.8046875)"/>
<path d="M0 0 C1.31291016 -0.02513672 1.31291016 -0.02513672 2.65234375 -0.05078125 C5.46458512 0.37310602 6.31704479 1.12924085 8.0625 3.3125 C7.0725 3.6425 6.0825 3.9725 5.0625 4.3125 C5.0625 3.6525 5.0625 2.9925 5.0625 2.3125 C0.41197128 2.04317479 0.41197128 2.04317479 -3.9375 3.3125 C-4.59305119 5.83983235 -4.59305119 5.83983235 -4.9375 8.3125 C-3.50010487 8.33962066 -2.06256137 8.35895067 -0.625 8.375 C0.17550781 8.38660156 0.97601563 8.39820313 1.80078125 8.41015625 C4.23111334 8.40907855 4.23111334 8.40907855 7.0625 7.3125 C6.0625 10.3125 6.0625 10.3125 4.0625 11.3125 C-3.40416667 11.66805556 -3.40416667 11.66805556 -6.9375 9.3125 C-7.25 5.8125 -7.25 5.8125 -6.9375 2.3125 C-4.42737037 -0.19762963 -3.46944763 0.01528391 0 0 Z " fill="#E2E2E2" transform="translate(212.9375,258.6875)"/>
<path d="M0 0 C0.495 0.99 0.495 0.99 1 2 C-0.07121094 2.34933594 -1.14242187 2.69867188 -2.24609375 3.05859375 C-3.64328104 3.51807145 -5.04041365 3.97771546 -6.4375 4.4375 C-7.14455078 4.66759766 -7.85160156 4.89769531 -8.58007812 5.13476562 C-12.06306795 6.07421147 -12.06306795 6.07421147 -15 8 C-17.14558827 8.08775605 -19.29404421 8.10695219 -21.44140625 8.09765625 C-22.74658203 8.09443359 -24.05175781 8.09121094 -25.39648438 8.08789062 C-26.7851569 8.07953401 -28.17382877 8.07106905 -29.5625 8.0625 C-30.95507656 8.05748666 -32.34765481 8.05292347 -33.74023438 8.04882812 C-37.1601987 8.03699434 -40.58007844 8.0205088 -44 8 C-44 7.67 -44 7.34 -44 7 C-42.741875 6.96261719 -41.48375 6.92523438 -40.1875 6.88671875 C-26.46856836 6.39387138 -12.74824254 5.57735611 0 0 Z " fill="#D56D3A" transform="translate(229,301)"/>
<path d="M0 0 C4.18099116 1.04524779 4.72845936 1.4105742 7.25 4.5625 C8.03117187 5.52349609 8.03117187 5.52349609 8.828125 6.50390625 C9.21484375 6.99761719 9.6015625 7.49132812 10 8 C10.33 5.36 10.66 2.72 11 0 C11.33 0 11.66 0 12 0 C12 3.63 12 7.26 12 11 C8.09567131 9.04783565 5.96160056 7.12613393 3 4 C2.67 6.31 2.34 8.62 2 11 C1.34 11 0.68 11 0 11 C0 7.37 0 3.74 0 0 Z " fill="#F1F1F1" transform="translate(289,259)"/>
<path d="M0 0 C0 0.66 0 1.32 0 2 C1.65 2.33 3.3 2.66 5 3 C5 3.66 5 4.32 5 5 C-0.94 5 -6.88 5 -13 5 C-13 4.34 -13 3.68 -13 3 C-11.39743892 2.49487756 -9.79288208 1.99608373 -8.1875 1.5 C-7.29417969 1.2215625 -6.40085938 0.943125 -5.48046875 0.65625 C-3 0 -3 0 0 0 Z " fill="#CBCCCD" transform="translate(176,204)"/>
<path d="M0 0 C7.16707877 0.32577631 12.76927124 3.65443628 19 7 C15.78548731 8.60725635 12.56387464 8.05748185 9 8 C9.33 9.65 9.66 11.3 10 13 C7.53199953 11.84826645 5.95216435 10.95216435 4 9 C5.32 9 6.64 9 8 9 C8 7.02 8 5.04 8 3 C7.236875 2.87625 6.47375 2.7525 5.6875 2.625 C3 2 3 2 0 0 Z " fill="#E16C2D" transform="translate(289,166)"/>
<path d="M0 0 C0.66 0.33 1.32 0.66 2 1 C0.33784732 2.33895632 -1.32963607 3.67130142 -3 5 C-3.99 5.804375 -3.99 5.804375 -5 6.625 C-8.32529993 8.9111437 -10.73845654 10.16820579 -14.8125 9.625 C-15.534375 9.41875 -16.25625 9.2125 -17 9 C-13.93005336 5.45775388 -11.45600316 4.31058917 -7 3 C-5.74461524 2.44962255 -4.49456899 1.88691646 -3.25 1.3125 C-2.1775 0.879375 -1.105 0.44625 0 0 Z " fill="#120301" transform="translate(229,179)"/>
<path d="M0 0 C-0.33 0.66 -0.66 1.32 -1 2 C-3.30859375 2.421875 -3.30859375 2.421875 -6.4375 2.75 C-14.09099128 3.78747326 -21.06096743 6.19887061 -28.32421875 8.7578125 C-32 10 -32 10 -34 10 C-34 9.34 -34 8.68 -34 8 C-29.96056262 6.68057001 -25.91809009 5.3706901 -21.875 4.0625 C-20.73289063 3.68931641 -19.59078125 3.31613281 -18.4140625 2.93164062 C-17.30546875 2.57392578 -16.196875 2.21621094 -15.0546875 1.84765625 C-14.03874512 1.51773682 -13.02280273 1.18781738 -11.97607422 0.84790039 C-4.14750763 -1.38250254 -4.14750763 -1.38250254 0 0 Z " fill="#E9E9E9" transform="translate(210,195)"/>
<path d="M0 0 C10.8994709 -0.57142857 10.8994709 -0.57142857 15 3 C15.33 3.99 15.66 4.98 16 6 C11.25 5.125 11.25 5.125 9 4 C7.29636178 3.77377919 5.58671299 3.59111527 3.875 3.4375 C2.96492187 3.35371094 2.05484375 3.26992187 1.1171875 3.18359375 C0.41851562 3.12300781 -0.28015625 3.06242188 -1 3 C-0.67 2.01 -0.34 1.02 0 0 Z " fill="#F8F8F8" transform="translate(226,231)"/>
<path d="M0 0 C0.66386719 0.15339844 1.32773438 0.30679688 2.01171875 0.46484375 C5.60155922 1.10773021 9.17795419 1.35033991 12.8125 1.5625 C13.85180664 1.62727539 13.85180664 1.62727539 14.91210938 1.69335938 C16.60788686 1.79861453 18.30392052 1.89972863 20 2 C20 2.66 20 3.32 20 4 C13.07 4 6.14 4 -1 4 C-0.67 2.68 -0.34 1.36 0 0 Z " fill="#B4643C" transform="translate(159,210)"/>
<path d="M0 0 C3.0916909 2.52956528 3.90931332 5.22454612 5 9 C2.03 9 -0.94 9 -4 9 C-2.80100302 5.9168649 -1.52299523 2.93720508 0 0 Z " fill="#050505" transform="translate(259,235)"/>
<path d="M0 0 C0.66 0 1.32 0 2 0 C3.32 2.64 4.64 5.28 6 8 C2.7 8 -0.6 8 -4 8 C-2.68 5.36 -1.36 2.72 0 0 Z " fill="#070707" transform="translate(314,236)"/>
<path d="M0 0 C0.99 0 1.98 0 3 0 C6 5.75 6 5.75 6 8 C6.66 8 7.32 8 8 8 C8.28875 7.236875 8.5775 6.47375 8.875 5.6875 C10 3 10 3 12 0 C12.66 0.33 13.32 0.66 14 1 C11.03 5.95 11.03 5.95 8 11 C5 10 5 10 3.61328125 7.71484375 C3.18402344 6.79832031 2.75476563 5.88179688 2.3125 4.9375 C1.87550781 4.01839844 1.43851563 3.09929687 0.98828125 2.15234375 C0.49908203 1.08693359 0.49908203 1.08693359 0 0 Z " fill="#EDEDED" transform="translate(180,259)"/>
<path d="M0 0 C1.890625 0.12109375 1.890625 0.12109375 4 1 C5.484375 3.28515625 5.484375 3.28515625 6.75 6.0625 C7.17796875 6.98160156 7.6059375 7.90070313 8.046875 8.84765625 C8.36140625 9.55792969 8.6759375 10.26820313 9 11 C6.58203125 10.66015625 6.58203125 10.66015625 4 10 C2.6875 7.4375 2.6875 7.4375 2 5 C1.34 5 0.68 5 0 5 C-0.5625 3.0625 -0.5625 3.0625 -1 1 C-0.67 0.67 -0.34 0.34 0 0 Z " fill="#F0F1F1" transform="translate(314,231)"/>
<path d="M0 0 C3.0625 2.5 3.0625 2.5 5 5 C4.505 4.855625 4.01 4.71125 3.5 4.5625 C-0.02808429 3.76868103 -3.38512503 3.28689484 -7 3 C-7.99 3.66 -8.98 4.32 -10 5 C-10.99 5 -11.98 5 -13 5 C-10.3430114 -0.8833319 -6.06134534 -0.98235597 0 0 Z " fill="#F9F9F9" transform="translate(235,220)"/>
<path d="M0 0 C7.38711053 0.69254161 13.17778365 5.72570086 18 11 C17.67 11.66 17.34 12.32 17 13 C16.071875 12.0925 15.14375 11.185 14.1875 10.25 C9.69596658 6.34994423 4.61569683 4.72634441 -1 3 C-0.67 2.01 -0.34 1.02 0 0 Z " fill="#EEEFEE" transform="translate(281,177)"/>
<path d="M0 0 C2.26889727 4.06238507 2.29761753 7.68665296 2.25 12.25 C2.25773437 12.97574219 2.26546875 13.70148438 2.2734375 14.44921875 C2.25508161 19.59804556 1.4113421 24.04910152 0 29 C-2 26 -2 26 -1.6875 23.9375 C-1 22 -1 22 0 20 C0.08372659 18.47851674 0.10730027 16.95344222 0.09765625 15.4296875 C0.09443359 14.53378906 0.09121094 13.63789063 0.08789062 12.71484375 C0.07532227 11.30912109 0.07532227 11.30912109 0.0625 9.875 C0.05798828 8.93011719 0.05347656 7.98523438 0.04882812 7.01171875 C0.03702357 4.67441613 0.02055759 2.33723939 0 0 Z " fill="#230402" transform="translate(308,195)"/>
<path d="M0 0 C2.97 0 5.94 0 9 0 C9 1.32 9 2.64 9 4 C6.03 4 3.06 4 0 4 C0 2.68 0 1.36 0 0 Z " fill="#505050" transform="translate(165,260)"/>
<path d="M0 0 C3.96 0 7.92 0 12 0 C12 0.33 12 0.66 12 1 C9.03 1 6.06 1 3 1 C3 1.99 3 2.98 3 4 C5.64 4 8.28 4 11 4 C11 4.33 11 4.66 11 5 C7.7 5 4.4 5 1 5 C1 6.98 1 8.96 1 11 C0.67 11 0.34 11 0 11 C0 7.37 0 3.74 0 0 Z " fill="#B5B5B5" transform="translate(146,259)"/>
<path d="M0 0 C4.29 0 8.58 0 13 0 C13 0.66 13 1.32 13 2 C11.35 2 9.7 2 8 2 C8 4.97 8 7.94 8 11 C7.34 11 6.68 11 6 11 C6 7.7 6 4.4 6 1 C4.02 1 2.04 1 0 1 C0 0.67 0 0.34 0 0 Z " fill="#E3E3E3" transform="translate(305,259)"/>
<path d="M0 0 C0.33 0 0.66 0 1 0 C1 1.98 1 3.96 1 6 C3.97 6 6.94 6 10 6 C10.33 4.02 10.66 2.04 11 0 C11.625 1.75 11.625 1.75 12 4 C11.34 5.32 10.68 6.64 10 8 C6.37 8 2.74 8 -1 8 C-0.67 5.36 -0.34 2.72 0 0 Z " fill="#D76F3B" transform="translate(309,217)"/>
<path d="M0 0 C1.72985242 0.11512153 3.45888751 0.24255677 5.1875 0.375 C6.15042969 0.44460937 7.11335937 0.51421875 8.10546875 0.5859375 C11.01508938 1.00215853 13.32890774 1.79874096 16 3 C16 3.33 16 3.66 16 4 C10.26157749 4.20413361 5.39460953 4.27141454 0 2 C0 1.34 0 0.68 0 0 Z " fill="#E06D31" transform="translate(193,212)"/>
<path d="M0 0 C0.99 0.33 1.98 0.66 3 1 C3 2.32 3 3.64 3 5 C0.59454362 6.20272819 -0.94996953 6.10071472 -3.625 6.0625 C-4.85089844 6.04896484 -4.85089844 6.04896484 -6.1015625 6.03515625 C-7.04128906 6.01775391 -7.04128906 6.01775391 -8 6 C-8.66 4.68 -9.32 3.36 -10 2 C-6.37 2.66 -2.74 3.32 1 4 C0.67 2.68 0.34 1.36 0 0 Z " fill="#F3F3F3" transform="translate(138,264)"/>
<path d="M0 0 C1.98 0 3.96 0 6 0 C4.68 0.33 3.36 0.66 2 1 C2 2.32 2 3.64 2 5 C4.64 5 7.28 5 10 5 C10 5.33 10 5.66 10 6 C7.36 6 4.72 6 2 6 C2 7.65 2 9.3 2 11 C1.34 11 0.68 11 0 11 C0 7.37 0 3.74 0 0 Z " fill="#FCFCFC" transform="translate(339,259)"/>
<path d="M0 0 C0.66 0.99 1.32 1.98 2 3 C2.99 3.66 3.98 4.32 5 5 C4.67 6.65 4.34 8.3 4 10 C1.03 9.505 1.03 9.505 -2 9 C-2 8.01 -2 7.02 -2 6 C-2.66 5.34 -3.32 4.68 -4 4 C-2.68 4 -1.36 4 0 4 C0 2.68 0 1.36 0 0 Z " fill="#DFDFDF" transform="translate(199,277)"/>
<path d="M0 0 C3.35270541 3.08801814 5.87721504 5.50886018 7 10 C6.625 12.8125 6.625 12.8125 6 15 C4.33251253 12.49876879 3.10045639 10.22323643 1.875 7.5 C1.34519531 6.33984375 1.34519531 6.33984375 0.8046875 5.15625 C0 3 0 3 0 0 Z " fill="#230602" transform="translate(316,179)"/>
<path d="M0 0 C3.3 0 6.6 0 10 0 C7.03171001 1.97885999 4.22552946 3.25864997 0.9375 4.625 C-0.12597656 5.07101563 -1.18945312 5.51703125 -2.28515625 5.9765625 C-5 7 -5 7 -7 7 C-7 6.34 -7 5.68 -7 5 C-5.5459375 4.5978125 -5.5459375 4.5978125 -4.0625 4.1875 C-3.051875 3.795625 -2.04125 3.40375 -1 3 C-0.67 2.01 -0.34 1.02 0 0 Z " fill="#210301" transform="translate(236,170)"/>
<path d="M0 0 C0.33 0.99 0.66 1.98 1 3 C1.99 3.33 2.98 3.66 4 4 C1.78065836 7.32901247 0.65316671 7.75023244 -3 9 C-3.33 7.02 -3.66 5.04 -4 3 C-3.01 3 -2.02 3 -1 3 C-0.67 2.01 -0.34 1.02 0 0 Z " fill="#E8E8E8" transform="translate(223,278)"/>
<path d="M0 0 C0.99 0.33 1.98 0.66 3 1 C4.95677555 1.15754704 4.95677555 1.15754704 7 1.125 C8.0209375 1.12886719 8.0209375 1.12886719 9.0625 1.1328125 C11.21874781 1.06631126 11.21874781 1.06631126 14 0 C13 3 13 3 11 4 C3.53333333 4.35555556 3.53333333 4.35555556 0 2 C0 1.34 0 0.68 0 0 Z " fill="#F9F9F9" transform="translate(252,266)"/>
<path d="M0 0 C0.33 0.66 0.66 1.32 1 2 C2.89533342 2.46523063 2.89533342 2.46523063 5.0625 2.625 C6.361875 2.74875 7.66125 2.8725 9 3 C9 3.33 9 3.66 9 4 C6.36 4 3.72 4 1 4 C0.67 5.65 0.34 7.3 0 9 C-1.3950848 6.70221327 -2.07438619 5.5207033 -1.6875 2.8125 C-1 1 -1 1 0 0 Z " fill="#F7F5F5" transform="translate(156,216)"/>
<path d="M0 0 C1.98 0 3.96 0 6 0 C6 0.66 6 1.32 6 2 C6.66 2.33 7.32 2.66 8 3 C7.67 3.99 7.34 4.98 7 6 C6.34 6 5.68 6 5 6 C5 5.34 5 4.68 5 4 C3.02 3.34 1.04 2.68 -1 2 C-0.67 1.34 -0.34 0.68 0 0 Z " fill="#0F0401" transform="translate(204,211)"/>
<path d="M0 0 C5.96564796 0.50771472 10.63809899 2.38592128 16 5 C12.90279155 5.87840996 11.09354597 5.99435406 8 5 C8 4.34 8 3.68 8 3 C7.236875 2.87625 6.47375 2.7525 5.6875 2.625 C3 2 3 2 0 0 Z " fill="#D86F37" transform="translate(289,166)"/>
<path d="M0 0 C1.69752187 0.25245197 3.38471545 0.57645775 5.0625 0.9375 C5.98160156 1.13214844 6.90070313 1.32679688 7.84765625 1.52734375 C8.91306641 1.76130859 8.91306641 1.76130859 10 2 C10 2.66 10 3.32 10 4 C2.49230769 4.36923077 2.49230769 4.36923077 0 2.5 C-0.33 2.005 -0.66 1.51 -1 1 C-0.67 0.67 -0.34 0.34 0 0 Z " fill="#080808" transform="translate(129,264)"/>
<path d="M0 0 C0 1.32 0 2.64 0 4 C-2.31 4 -4.62 4 -7 4 C-7 3.01 -7 2.02 -7 1 C-4 0 -4 0 0 0 Z " fill="#100E0E" transform="translate(168,215)"/>
<path d="M0 0 C0.33 0.99 0.66 1.98 1 3 C1.66 3.33 2.32 3.66 3 4 C0.625 5.5625 0.625 5.5625 -2 7 C-4 6 -4 6 -6 3 C-5.195625 2.87625 -4.39125 2.7525 -3.5625 2.625 C-2.716875 2.41875 -1.87125 2.2125 -1 2 C-0.67 1.34 -0.34 0.68 0 0 Z " fill="#332220" transform="translate(246,288)"/>
<path d="M0 0 C1.65 0 3.3 0 5 0 C-2.71428571 6 -2.71428571 6 -6 6 C-5.34 4.35 -4.68 2.7 -4 1 C-2.68 1.33 -1.36 1.66 0 2 C0 1.34 0 0.68 0 0 Z " fill="#180300" transform="translate(224,177)"/>
<path d="M0 0 C0.33 0.99 0.66 1.98 1 3 C-2.22791555 5.1519437 -3.28400809 5.20086443 -7 5 C-7 4.01 -7 3.02 -7 2 C-4.69 1.34 -2.38 0.68 0 0 Z " fill="#100F12" transform="translate(225,298)"/>
<path d="M0 0 C3.3 0 6.6 0 10 0 C5.78492722 3.16130459 4.93928888 3.3367697 0 3 C0 2.01 0 1.02 0 0 Z " fill="#111111" transform="translate(228,260)"/>
<path d="M0 0 C0 0.66 0 1.32 0 2 C-2.64 2.33 -5.28 2.66 -8 3 C-8 2.01 -8 1.02 -8 0 C-5.13822943 -1.43088528 -3.06624227 -0.59991697 0 0 Z " fill="#070203" transform="translate(234,298)"/>
<path d="M0 0 C0.66 0 1.32 0 2 0 C1 3 1 3 -1 4 C-3.3329866 4.04022391 -5.66706666 4.04320247 -8 4 C-8 3.34 -8 2.68 -8 2 C-6.865625 1.855625 -5.73125 1.71125 -4.5625 1.5625 C-1.19222799 1.38828522 -1.19222799 1.38828522 0 0 Z " fill="#FBFBFB" transform="translate(218,266)"/>
<path d="M0 0 C0.66 0.33 1.32 0.66 2 1 C0.3125 3.5 0.3125 3.5 -2 6 C-4.75 6.3125 -4.75 6.3125 -7 6 C-7 5.34 -7 4.68 -7 4 C-5.35 3.67 -3.7 3.34 -2 3 C-2 2.34 -2 1.68 -2 1 C-1.34 0.67 -0.68 0.34 0 0 Z " fill="#3B3D3B" transform="translate(237,292)"/>
<path d="M0 0 C2.25 0.25 2.25 0.25 4 1 C3.34 1.66 2.68 2.32 2 3 C2.33 3.66 2.66 4.32 3 5 C0.69 4.67 -1.62 4.34 -4 4 C-2.25 1.9375 -2.25 1.9375 0 0 Z " fill="#563027" transform="translate(216,184)"/>
<path d="M0 0 C0.66 0.33 1.32 0.66 2 1 C-1.60957611 4.2910841 -4.12637153 5.54663921 -9 6 C-6.12050853 3.76039553 -3.23257974 1.70135776 0 0 Z " fill="#220300" transform="translate(256,295)"/>
<path d="M0 0 C0.99 0.33 1.98 0.66 3 1 C2.67 3.31 2.34 5.62 2 8 C0.4375 6.8125 0.4375 6.8125 -1 5 C-0.6875 2.3125 -0.6875 2.3125 0 0 Z " fill="#1C1312" transform="translate(156,210)"/>
<path d="M0 0 C1.5 1.1875 1.5 1.1875 3 3 C3.1875 5.6875 3.1875 5.6875 3 8 C2.34 7.34 1.68 6.68 1 6 C0.01 6 -0.98 6 -2 6 C-1.34 4.02 -0.68 2.04 0 0 Z " fill="#E66E2D" transform="translate(315,181)"/>
<path d="M0 0 C1.98 0 3.96 0 6 0 C5.67 0.99 5.34 1.98 5 3 C3.02 3 1.04 3 -1 3 C-0.67 2.01 -0.34 1.02 0 0 Z " fill="#FCFCFC" transform="translate(195,231)"/>
<path d="M0 0 C-2.91765 1.9451 -4.62537285 2.45276317 -8 3 C-7.67 2.01 -7.34 1.02 -7 0 C-4.3333581 -1.33332095 -2.83319697 -0.67102033 0 0 Z " fill="#15131A" transform="translate(303,218)"/>
<path d="M0 0 C4.75 0.75 4.75 0.75 7 3 C4.36 3 1.72 3 -1 3 C-0.67 2.01 -0.34 1.02 0 0 Z " fill="#DA723F" transform="translate(159,210)"/>
<path d="M0 0 C3.63 0.33 7.26 0.66 11 1 C11 1.33 11 1.66 11 2 C4.25 2.125 4.25 2.125 2 1 C2 1.66 2 2.32 2 3 C1.01 2.67 0.02 2.34 -1 2 C-0.67 1.34 -0.34 0.68 0 0 Z " fill="#D66F3C" transform="translate(174,306)"/>
<path d="M0 0 C0.66 0.33 1.32 0.66 2 1 C2 1.66 2 2.32 2 3 C-1 5 -1 5 -4 5 C-2.25 1.125 -2.25 1.125 0 0 Z " fill="#F3F3F3" transform="translate(226,220)"/>
</svg>
